<?xml version="1.0" encoding="UTF-8" standalone="no"?>
<!-- Created with Inkscape (http://www.inkscape.org/) -->

<svg
   width="5.0900269mm"
   height="5.0900421mm"
   viewBox="0 0 5.0900269 5.0900421"
   version="1.1"
   id="svg5"
   xml:space="preserve"
   inkscape:version="1.2.1 (9c6d41e410, 2022-07-14)"
   sodipodi:docname="0_Portifolio.svg"
   inkscape:export-filename="PortifolioDesenho.pdf"
   inkscape:export-xdpi="96"
   inkscape:export-ydpi="96"
   xmlns:inkscape="http://www.inkscape.org/namespaces/inkscape"
   xmlns:sodipodi="http://sodipodi.sourceforge.net/DTD/sodipodi-0.dtd"
   xmlns="http://www.w3.org/2000/svg"
   xmlns:svg="http://www.w3.org/2000/svg"><sodipodi:namedview
     id="namedview7"
     pagecolor="#ffffff"
     bordercolor="#000000"
     borderopacity="0.25"
     inkscape:showpageshadow="2"
     inkscape:pageopacity="0.0"
     inkscape:pagecheckerboard="0"
     inkscape:deskcolor="#d1d1d1"
     inkscape:document-units="mm"
     showgrid="false"
     inkscape:zoom="1.0456808"
     inkscape:cx="368.65936"
     inkscape:cy="768.39895"
     inkscape:window-width="1920"
     inkscape:window-height="991"
     inkscape:window-x="-9"
     inkscape:window-y="-9"
     inkscape:window-maximized="1"
     inkscape:current-layer="g10175"
     showguides="true"
     inkscape:lockguides="false" /><defs
     id="defs2"><linearGradient
       id="linearGradient9088"
       inkscape:swatch="solid"><stop
         style="stop-color:#592121;stop-opacity:1;"
         offset="0"
         id="stop9086" /></linearGradient><linearGradient
       id="linearGradient9080"
       inkscape:swatch="solid"><stop
         style="stop-color:#ababab;stop-opacity:1;"
         offset="0"
         id="stop9078" /></linearGradient></defs><g
     inkscape:label="Camada 1"
     inkscape:groupmode="layer"
     id="layer1"
     transform="translate(-243.42321,-85.87557)"><g
       id="g37540"
       transform="matrix(0.85355307,0,0,0.85355307,44.291238,12.707752)"><g
         id="g37407"><g
           id="g32583"><g
             id="g32356"><g
               id="g32347"><g
                 style="color:#ffffff;fill:currentColor"
                 id="g31971"
                 transform="matrix(0.37270943,0,0,0.37270943,233.29695,85.72147)"><path
                   d="M 6.375,7.125 V 4.658 h 1.78 c 0.973,0 1.542,0.457 1.542,1.237 0,0.802 -0.604,1.23 -1.764,1.23 z m 0,3.762 h 1.898 c 1.184,0 1.81,-0.48 1.81,-1.377 0,-0.885 -0.65,-1.348 -1.886,-1.348 H 6.375 Z"
                   fill="#ffffff"
                   id="path31959" /><path
                   d="m 4.002,0 a 4,4 0 0 0 -4,4 v 8 a 4,4 0 0 0 4,4 h 8 a 4,4 0 0 0 4,-4 V 4 a 4,4 0 0 0 -4,-4 z m 1.06,12 V 3.545 h 3.399 c 1.587,0 2.543,0.809 2.543,2.11 0,0.884 -0.65,1.675 -1.483,1.816 v 0.1 c 1.143,0.117 1.904,0.931 1.904,2.033 0,1.488 -1.084,2.396 -2.888,2.396 z"
                   fill="#ffffff"
                   id="path31961" /></g></g></g></g></g></g></g></svg>
