<?xml version="1.0" encoding="UTF-8" standalone="no"?>
<!-- Created with Inkscape (http://www.inkscape.org/) -->

<svg
   width="8.0967865mm"
   height="8.0967989mm"
   viewBox="0 0 8.0967865 8.0967989"
   version="1.1"
   id="svg5"
   xml:space="preserve"
   inkscape:version="1.2.1 (9c6d41e410, 2022-07-14)"
   sodipodi:docname="0_Portifolio.svg"
   inkscape:export-filename="PortifolioDesenho.pdf"
   inkscape:export-xdpi="96"
   inkscape:export-ydpi="96"
   xmlns:inkscape="http://www.inkscape.org/namespaces/inkscape"
   xmlns:sodipodi="http://sodipodi.sourceforge.net/DTD/sodipodi-0.dtd"
   xmlns="http://www.w3.org/2000/svg"
   xmlns:svg="http://www.w3.org/2000/svg"><sodipodi:namedview
     id="namedview7"
     pagecolor="#ffffff"
     bordercolor="#000000"
     borderopacity="0.25"
     inkscape:showpageshadow="2"
     inkscape:pageopacity="0.0"
     inkscape:pagecheckerboard="0"
     inkscape:deskcolor="#d1d1d1"
     inkscape:document-units="mm"
     showgrid="false"
     inkscape:zoom="0.52284038"
     inkscape:cx="627.34251"
     inkscape:cy="505.89053"
     inkscape:window-width="1920"
     inkscape:window-height="991"
     inkscape:window-x="-9"
     inkscape:window-y="-9"
     inkscape:window-maximized="1"
     inkscape:current-layer="layer1"
     showguides="true"
     inkscape:lockguides="false" /><defs
     id="defs2"><linearGradient
       id="linearGradient9088"
       inkscape:swatch="solid"><stop
         style="stop-color:#592121;stop-opacity:1;"
         offset="0"
         id="stop9086" /></linearGradient><linearGradient
       id="linearGradient9080"
       inkscape:swatch="solid"><stop
         style="stop-color:#ababab;stop-opacity:1;"
         offset="0"
         id="stop9078" /></linearGradient></defs><g
     inkscape:label="Camada 1"
     inkscape:groupmode="layer"
     id="layer1"
     transform="translate(-170.87619,-1.7711744)"><rect
       style="fill:#fefafa;fill-opacity:1;stroke-width:0.21742"
       id="rect618-6-4"
       width="210.01071"
       height="149.81934"
       x="0.19244981"
       y="0.0024381708"
       ry="0.19405317" /><g
       id="g9638"><circle
         style="fill:#92242e;fill-opacity:1;stroke-width:0.176"
         id="path396-4"
         cx="174.92459"
         cy="5.8195739"
         r="4.0483994" /><path
         style="fill:#ffffff;fill-opacity:1;stroke-width:0.0158873"
         d="m 174.28128,7.9044974 c -0.0804,-0.027411 -0.10623,-0.044128 -0.11712,-0.075676 -0.0111,-0.032194 0.0774,-0.3562466 0.43209,-1.5807789 0.24535,-0.8471578 0.50994,-1.7609969 0.588,-2.0307536 0.078,-0.2697566 0.15165,-0.4966363 0.16354,-0.5041765 0.0358,-0.022676 0.11117,-0.015067 0.21897,0.022112 0.1268,0.04373 0.14172,0.065189 0.11519,0.16559 -0.11377,0.4306533 -1.15624,3.9912645 -1.17467,4.0121877 -0.0326,0.036907 -0.10038,0.03436 -0.226,-0.00851 z m -1.44154,-1.2866562 c -0.65425,-0.654262 -0.75102,-0.7571164 -0.75102,-0.7983008 0,-0.041189 0.0967,-0.1438897 0.75118,-0.7979798 0.55823,-0.5578822 0.76062,-0.7507039 0.78796,-0.7507039 0.0238,0 0.0755,0.037367 0.14646,0.105873 0.0886,0.085598 0.10966,0.1151826 0.10966,0.1544802 0,0.042784 -0.0742,0.1228682 -0.61938,0.6685816 l -0.61938,0.6199745 0.61938,0.6201173 c 0.5449,0.5455462 0.61938,0.6259559 0.61938,0.6686763 0,0.039241 -0.021,0.068879 -0.10966,0.1544328 -0.0713,0.068768 -0.12262,0.1058731 -0.14661,0.1058731 -0.0275,0 -0.22789,-0.1909484 -0.78797,-0.7510243 z m 3.23513,0.6451512 c -0.0887,-0.085553 -0.10966,-0.1151937 -0.10966,-0.1544328 0,-0.042721 0.0745,-0.1231301 0.61938,-0.6686763 l 0.61938,-0.6201173 -0.61938,-0.6199745 c -0.54519,-0.5457134 -0.61938,-0.6257979 -0.61938,-0.6685816 0,-0.039296 0.021,-0.068886 0.10966,-0.1544802 0.071,-0.06851 0.12264,-0.105873 0.14645,-0.105873 0.0274,0 0.22972,0.1928217 0.78795,0.7507039 0.65177,0.6513484 0.75119,0.7569103 0.75119,0.797597 0,0.040633 -0.097,0.1442196 -0.72684,0.775632 -0.67034,0.6720863 -0.77981,0.7740759 -0.83087,0.7740759 -0.0105,0 -0.0676,-0.047643 -0.12788,-0.1058731 z"
         id="path9634" /></g></g></svg>
