<?xml version="1.0" encoding="UTF-8" standalone="no"?>
<!-- Created with Inkscape (http://www.inkscape.org/) -->

<svg
   width="9.9430695mm"
   height="6.9612198mm"
   viewBox="0 0 9.9430695 6.9612198"
   version="1.1"
   id="svg5"
   xml:space="preserve"
   inkscape:version="1.2.1 (9c6d41e410, 2022-07-14)"
   sodipodi:docname="0_Portifolio.svg"
   inkscape:export-filename="PortifolioDesenho.pdf"
   inkscape:export-xdpi="96"
   inkscape:export-ydpi="96"
   xmlns:inkscape="http://www.inkscape.org/namespaces/inkscape"
   xmlns:sodipodi="http://sodipodi.sourceforge.net/DTD/sodipodi-0.dtd"
   xmlns="http://www.w3.org/2000/svg"
   xmlns:svg="http://www.w3.org/2000/svg"><sodipodi:namedview
     id="namedview7"
     pagecolor="#ffffff"
     bordercolor="#000000"
     borderopacity="0.25"
     inkscape:showpageshadow="2"
     inkscape:pageopacity="0.0"
     inkscape:pagecheckerboard="0"
     inkscape:deskcolor="#d1d1d1"
     inkscape:document-units="mm"
     showgrid="false"
     inkscape:zoom="1.0456808"
     inkscape:cx="368.65936"
     inkscape:cy="768.39895"
     inkscape:window-width="1920"
     inkscape:window-height="991"
     inkscape:window-x="-9"
     inkscape:window-y="-9"
     inkscape:window-maximized="1"
     inkscape:current-layer="g10175"
     showguides="true"
     inkscape:lockguides="false" /><defs
     id="defs2"><linearGradient
       id="linearGradient9088"
       inkscape:swatch="solid"><stop
         style="stop-color:#592121;stop-opacity:1;"
         offset="0"
         id="stop9086" /></linearGradient><linearGradient
       id="linearGradient9080"
       inkscape:swatch="solid"><stop
         style="stop-color:#ababab;stop-opacity:1;"
         offset="0"
         id="stop9078" /></linearGradient></defs><g
     inkscape:label="Camada 1"
     inkscape:groupmode="layer"
     id="layer1"
     transform="translate(-238.94646,-105.81889)"><path
       d="m 244.38285,108.99268 h -1.02686 v -0.92277 h 1.02686 z m 0,-3.17379 h -1.02686 v 0.94297 h 1.02686 z m 1.21483,2.24946 h -1.02686 v 0.92278 h 1.02686 z m -2.42812,-1.12007 h -1.02686 v 0.93365 h 1.02686 z m 1.21329,0 h -1.02686 v 0.93365 h 1.02686 z m 4.30008,1.5535 c -0.2237,-0.15069 -0.73947,-0.20506 -1.13561,-0.13049 -0.0513,-0.37284 -0.25943,-0.69753 -0.63848,-0.98959 l -0.2175,-0.14447 -0.14447,0.21749 c -0.28584,0.43188 -0.36352,1.14338 -0.0575,1.61253 -0.13515,0.073 -0.4008,0.17244 -0.75189,0.16623 h -6.75306 c -0.13516,0.78917 0.0901,1.81448 0.68354,2.51822 0.57635,0.68198 1.44009,1.02841 2.56949,1.02841 2.4452,0 4.25503,-1.12628 5.10168,-3.17224 0.33245,0.006 1.05017,0.002 1.41835,-0.70218 0.0233,-0.0388 0.10253,-0.20506 0.13205,-0.26565 z m -7.93993,-0.43343 h -1.02531 v 0.92278 h 1.02686 v -0.92278 z m 1.21328,0 h -1.02686 v 0.92278 h 1.02686 z m 1.21328,0 h -1.02686 v 0.92278 h 1.02686 z m -1.21328,-1.12007 h -1.02686 v 0.93365 h 1.02686 z"
       id="path92611"
       style="fill:#ffffff;fill-opacity:1;stroke-width:0.0155349"
       inkscape:export-filename="svg-utilizado\docker.svg"
       inkscape:export-xdpi="96"
       inkscape:export-ydpi="96" /></g></svg>
