<?xml version="1.0" encoding="UTF-8" standalone="no"?>
<!-- Created with Inkscape (http://www.inkscape.org/) -->

<svg
   width="8.0968018mm"
   height="8.0967989mm"
   viewBox="0 0 8.0968018 8.0967989"
   version="1.1"
   id="svg5"
   xml:space="preserve"
   inkscape:version="1.2.1 (9c6d41e410, 2022-07-14)"
   sodipodi:docname="0_Portifolio.svg"
   inkscape:export-filename="PortifolioDesenho.pdf"
   inkscape:export-xdpi="96"
   inkscape:export-ydpi="96"
   xmlns:inkscape="http://www.inkscape.org/namespaces/inkscape"
   xmlns:sodipodi="http://sodipodi.sourceforge.net/DTD/sodipodi-0.dtd"
   xmlns="http://www.w3.org/2000/svg"
   xmlns:svg="http://www.w3.org/2000/svg"><sodipodi:namedview
     id="namedview7"
     pagecolor="#ffffff"
     bordercolor="#000000"
     borderopacity="0.25"
     inkscape:showpageshadow="2"
     inkscape:pageopacity="0.0"
     inkscape:pagecheckerboard="0"
     inkscape:deskcolor="#d1d1d1"
     inkscape:document-units="mm"
     showgrid="false"
     inkscape:zoom="0.52284038"
     inkscape:cx="627.34251"
     inkscape:cy="505.89053"
     inkscape:window-width="1920"
     inkscape:window-height="991"
     inkscape:window-x="-9"
     inkscape:window-y="-9"
     inkscape:window-maximized="1"
     inkscape:current-layer="layer1"
     showguides="true"
     inkscape:lockguides="false" /><defs
     id="defs2"><linearGradient
       id="linearGradient9088"
       inkscape:swatch="solid"><stop
         style="stop-color:#592121;stop-opacity:1;"
         offset="0"
         id="stop9086" /></linearGradient><linearGradient
       id="linearGradient9080"
       inkscape:swatch="solid"><stop
         style="stop-color:#ababab;stop-opacity:1;"
         offset="0"
         id="stop9078" /></linearGradient></defs><g
     inkscape:label="Camada 1"
     inkscape:groupmode="layer"
     id="layer1"
     transform="translate(-158.64664,-1.7711744)"><rect
       style="fill:#fefafa;fill-opacity:1;stroke-width:0.21742"
       id="rect618-6-4"
       width="210.01071"
       height="149.81934"
       x="0.19244981"
       y="0.0024381708"
       ry="0.19405317" /><g
       id="g607"><circle
         style="fill:#92242e;fill-opacity:1;stroke-width:0.176"
         id="path396-7"
         cx="162.69505"
         cy="5.8195739"
         r="4.0483994" /><path
         style="fill:#ffffff;fill-opacity:1;stroke-width:0.0182751"
         d="m 160.79656,8.0857866 c -0.0608,-0.02482 -0.13192,-0.1077917 -0.14397,-0.1680673 -0.007,-0.031268 -0.0114,-0.4422767 -0.0114,-0.9133539 V 6.1478625 l 0.0503,-0.044406 c 0.0276,-0.024423 0.29697,-0.2469353 0.5985,-0.494469 0.60799,-0.4990866 0.90086,-0.7401674 1.20376,-0.9908595 0.17315,-0.1432914 0.20701,-0.1644426 0.2306,-0.1440132 0.0152,0.01317 0.12706,0.1051997 0.24857,0.2045096 0.6179,0.5050144 1.62551,1.3355071 1.73061,1.4263773 l 0.0509,0.044025 -0.005,0.8993262 c -0.006,0.96696 -0.002,0.933055 -0.10291,1.0089756 -0.0463,0.034881 -0.0812,0.036783 -0.76367,0.041719 l -0.71517,0.00521 -0.0117,-0.046679 c -0.007,-0.025671 -0.0113,-0.3240554 -0.0108,-0.6630745 4.6e-4,-0.3390174 8.3e-4,-0.6266759 4.6e-4,-0.6392403 -3.7e-4,-0.017643 -0.10243,-0.022844 -0.44819,-0.022844 -0.34509,0 -0.44815,0.00521 -0.44948,0.022844 -8.2e-4,0.012567 -0.003,0.3065651 -0.006,0.6533343 -0.002,0.34677 -0.006,0.6448822 -0.007,0.6624717 -0.002,0.029863 -0.0493,0.031905 -0.70212,0.030822 -0.38447,-6.424e-4 -0.71547,-0.00785 -0.73557,-0.016072 z M 160.1021,6.1994868 c -0.045,-0.022612 -0.24744,-0.2689405 -0.26907,-0.3274104 -0.0116,-0.031401 -0.007,-0.054864 0.0187,-0.089152 0.0357,-0.048225 2.46515,-2.0879875 2.58318,-2.1688662 0.0984,-0.067398 0.24043,-0.095409 0.35395,-0.069779 0.0504,0.011393 0.1093,0.030111 0.13079,0.041611 0.0215,0.0115 0.23044,0.1813922 0.46435,0.3775423 0.23391,0.1961501 0.43204,0.3566367 0.44031,0.3566367 0.008,0 0.015,-0.1587917 0.015,-0.3528707 0,-0.2759118 0.006,-0.3606085 0.026,-0.3883458 0.0243,-0.033261 0.0511,-0.035477 0.42854,-0.035477 0.30583,0 0.40833,0.0057 0.42638,0.023745 0.0184,0.018412 0.0258,0.1945519 0.0329,0.7852171 l 0.009,0.7614774 0.38339,0.3207243 c 0.21086,0.1763986 0.39313,0.3402824 0.40506,0.3641859 0.0292,0.05851 0.0135,0.093038 -0.11354,0.2494867 -0.12731,0.1568372 -0.1866,0.1912796 -0.25365,0.1473484 -0.0247,-0.016205 -0.31467,-0.253857 -0.6443,-0.5281152 -0.75731,-0.6300905 -1.77852,-1.4773857 -1.81637,-1.507041 -0.0243,-0.019065 -0.0519,-0.00331 -0.17627,0.1005127 -0.29724,0.2482143 -2.07627,1.724392 -2.3074,1.9146051 -0.0422,0.034683 -0.0967,0.044224 -0.13706,0.023968 z"
         id="path340" /></g></g></svg>
