<?xml version="1.0" encoding="UTF-8" standalone="no"?>
<!-- Created with Inkscape (http://www.inkscape.org/) -->

<svg
   width="4.7423859mm"
   height="6.4330673mm"
   viewBox="0 0 4.7423859 6.4330673"
   version="1.1"
   id="svg5"
   xml:space="preserve"
   inkscape:version="1.2.1 (9c6d41e410, 2022-07-14)"
   sodipodi:docname="0_Portifolio.svg"
   inkscape:export-filename="PortifolioDesenho.pdf"
   inkscape:export-xdpi="96"
   inkscape:export-ydpi="96"
   xmlns:inkscape="http://www.inkscape.org/namespaces/inkscape"
   xmlns:sodipodi="http://sodipodi.sourceforge.net/DTD/sodipodi-0.dtd"
   xmlns="http://www.w3.org/2000/svg"
   xmlns:svg="http://www.w3.org/2000/svg"><sodipodi:namedview
     id="namedview7"
     pagecolor="#ffffff"
     bordercolor="#000000"
     borderopacity="0.25"
     inkscape:showpageshadow="2"
     inkscape:pageopacity="0.0"
     inkscape:pagecheckerboard="0"
     inkscape:deskcolor="#d1d1d1"
     inkscape:document-units="mm"
     showgrid="false"
     inkscape:zoom="1.0456808"
     inkscape:cx="368.65936"
     inkscape:cy="768.39895"
     inkscape:window-width="1920"
     inkscape:window-height="991"
     inkscape:window-x="-9"
     inkscape:window-y="-9"
     inkscape:window-maximized="1"
     inkscape:current-layer="g10175"
     showguides="true"
     inkscape:lockguides="false" /><defs
     id="defs2"><linearGradient
       id="linearGradient9088"
       inkscape:swatch="solid"><stop
         style="stop-color:#592121;stop-opacity:1;"
         offset="0"
         id="stop9086" /></linearGradient><linearGradient
       id="linearGradient9080"
       inkscape:swatch="solid"><stop
         style="stop-color:#ababab;stop-opacity:1;"
         offset="0"
         id="stop9078" /></linearGradient></defs><g
     inkscape:label="Camada 1"
     inkscape:groupmode="layer"
     id="layer1"
     transform="translate(-243.59704,-44.222964)"><g
       id="g37540"
       transform="matrix(0.85355307,0,0,0.85355307,44.291238,12.707752)"><g
         id="g37407"><g
           id="g32490"><g
             id="g32459"><g
               id="g32451"
               inkscape:export-filename="..\java.svg"
               inkscape:export-xdpi="96"
               inkscape:export-ydpi="96"><path
                 d="m 237.54563,41.528312 c 0.14427,-0.09862 0.34446,-0.184002 0.34446,-0.184002 0,0 -0.56967,0.103041 -1.13639,0.150144 -0.69332,0.05741 -1.43816,0.06919 -1.81205,0.01913 -0.88469,-0.11776 0.48576,-0.443075 0.48576,-0.443075 0,0 -0.5314,-0.03533 -1.18644,0.279682 -0.77281,0.373892 1.91362,0.544646 3.30466,0.178113 z m -1.25709,-0.472517 c -0.27968,-0.62855 -1.22325,-1.180555 0,-2.146196 1.52648,-1.204107 0.74337,-1.987218 0.74337,-1.987218 0.31648,1.243852 -1.11284,1.620687 -1.62953,2.393494 -0.3518,0.528453 0.17224,1.095178 0.88616,1.73992 z m 1.68693,-2.593688 c 7.4e-4,0 -2.57897,0.644742 -1.3469,2.063763 0.36359,0.418052 -0.0957,0.794887 -0.0957,0.794887 0,0 0.92295,-0.476931 0.49901,-1.073098 -0.39597,-0.556421 -0.69921,-0.833159 0.94356,-1.785552 z m -0.0898,3.981797 a 0.17958566,0.17958566 0 0 1 -0.0295,0.03827 c 1.8886,-0.496069 1.19381,-1.750224 0.29147,-1.43227 a 0.25465836,0.25465836 0 0 0 -0.12071,0.09274 1.0377696,1.0377696 0 0 1 0.16192,-0.04416 c 0.45633,-0.09568 1.11136,0.610885 -0.30324,1.34542 z m 0.69478,0.917065 c 0,0 0.21344,0.17517 -0.23404,0.312067 -0.8523,0.257602 -3.54462,0.335619 -4.29239,0.0103 -0.26939,-0.116288 0.23551,-0.279682 0.39449,-0.313538 0.16487,-0.03533 0.26055,-0.02943 0.26055,-0.02943 -0.29882,-0.210498 -1.93275,0.413635 -0.83021,0.591749 3.00585,0.488709 5.48178,-0.21933 4.7016,-0.571142 z m -3.29141,-0.609414 c -1.15848,0.323842 0.7051,0.992137 2.18006,0.360643 a 2.7364732,2.7364732 0 0 1 -0.41511,-0.203138 c -0.65799,0.125122 -0.9627,0.133954 -1.56033,0.06624 -0.49313,-0.05593 -0.20462,-0.223746 -0.20462,-0.223745 z m 2.64668,1.430798 c -1.15847,0.217857 -2.5878,0.192833 -3.43421,0.05299 0,-0.0015 0.1737,0.142785 1.06575,0.200193 1.35719,0.08685 3.44157,-0.04858 3.49013,-0.690374 0,0 -0.0942,0.242882 -1.12167,0.437189 z m -0.64179,-2.063765 c -0.87144,0.16781 -1.37634,0.163394 -2.01372,0.09715 -0.49312,-0.05152 -0.17075,-0.289987 -0.17075,-0.289987 -1.27771,0.42394 0.70951,0.903816 2.49506,0.381252 a 0.88909614,0.88909614 0 0 1 -0.31059,-0.188419 z"
                 id="path28802"
                 style="fill:#ffffff;fill-opacity:1;stroke-width:0.0147201" /></g></g></g></g></g></g></svg>
