<?xml version="1.0" encoding="UTF-8" standalone="no"?>
<!-- Created with Inkscape (http://www.inkscape.org/) -->

<svg
   width="5.4485779mm"
   height="5.4485931mm"
   viewBox="0 0 5.4485779 5.4485931"
   version="1.1"
   id="svg5"
   xml:space="preserve"
   inkscape:version="1.2.1 (9c6d41e410, 2022-07-14)"
   sodipodi:docname="0_Portifolio.svg"
   inkscape:export-filename="PortifolioDesenho.pdf"
   inkscape:export-xdpi="96"
   inkscape:export-ydpi="96"
   xmlns:inkscape="http://www.inkscape.org/namespaces/inkscape"
   xmlns:sodipodi="http://sodipodi.sourceforge.net/DTD/sodipodi-0.dtd"
   xmlns="http://www.w3.org/2000/svg"
   xmlns:svg="http://www.w3.org/2000/svg"><sodipodi:namedview
     id="namedview7"
     pagecolor="#ffffff"
     bordercolor="#000000"
     borderopacity="0.25"
     inkscape:showpageshadow="2"
     inkscape:pageopacity="0.0"
     inkscape:pagecheckerboard="0"
     inkscape:deskcolor="#d1d1d1"
     inkscape:document-units="mm"
     showgrid="false"
     inkscape:zoom="1.0456808"
     inkscape:cx="368.65936"
     inkscape:cy="768.39895"
     inkscape:window-width="1920"
     inkscape:window-height="991"
     inkscape:window-x="-9"
     inkscape:window-y="-9"
     inkscape:window-maximized="1"
     inkscape:current-layer="g10175"
     showguides="true"
     inkscape:lockguides="false" /><defs
     id="defs2"><linearGradient
       id="linearGradient9088"
       inkscape:swatch="solid"><stop
         style="stop-color:#592121;stop-opacity:1;"
         offset="0"
         id="stop9086" /></linearGradient><linearGradient
       id="linearGradient9080"
       inkscape:swatch="solid"><stop
         style="stop-color:#ababab;stop-opacity:1;"
         offset="0"
         id="stop9078" /></linearGradient></defs><g
     inkscape:label="Camada 1"
     inkscape:groupmode="layer"
     id="layer1"
     transform="translate(-240.58472,-66.065451)"><g
       id="g37540"
       transform="matrix(0.85355307,0,0,0.85355307,44.291238,12.707752)"><g
         id="g37407"><g
           id="g32524"><g
             id="g32367"><g
               id="g31488"><g
                 id="g30487"
                 transform="matrix(1.0386464,0,0,1.0386464,-36.269435,23.970436)"
                 inkscape:export-filename="svg-utilizado\js.svg"
                 inkscape:export-xdpi="96"
                 inkscape:export-ydpi="96"><text
                   xml:space="preserve"
                   style="font-style:normal;font-variant:normal;font-weight:normal;font-stretch:normal;font-size:2.50321px;font-family:Ebrima;-inkscape-font-specification:Ebrima;fill:#ffffff;fill-opacity:1;fill-rule:evenodd;stroke:none;stroke-width:0.134819;stroke-dasharray:none;stroke-opacity:1"
                   x="254.60843"
                   y="48.096302"
                   id="text29069-0"><tspan
                     sodipodi:role="line"
                     id="tspan29067-6"
                     style="font-style:normal;font-variant:normal;font-weight:normal;font-stretch:normal;font-family:'Lucida Brighta';-inkscape-font-specification:'Lucida Brighta';stroke-width:0.134819"
                     x="254.60843"
                     y="48.096302" /></text><path
                   d="m 256.3352,37.107936 v 6.145905 h 6.14591 v -6.145905 z m 3.34458,4.793257 c 0,0.598129 -0.3512,0.871127 -0.86289,0.871127 -0.46232,0 -0.72983,-0.238702 -0.86702,-0.528164 l 0.47055,-0.283973 c 0.0905,0.160507 0.17286,0.29632 0.37177,0.29632 0.18931,0 0.31004,-0.07408 0.31004,-0.363541 v -1.963123 h 0.57755 z m 1.36637,0.871127 c -0.5364,0 -0.88348,-0.255166 -1.05222,-0.589897 l 0.47055,-0.271627 c 0.12346,0.201663 0.28535,0.351194 0.56932,0.351194 0.2387,0 0.39235,-0.119351 0.39235,-0.285345 0,-0.197547 -0.15639,-0.267512 -0.42116,-0.384118 l -0.14405,-0.06173 c -0.41704,-0.176969 -0.69278,-0.400582 -0.69278,-0.871127 0,-0.433506 0.33062,-0.762751 0.84506,-0.762751 0.36766,0 0.63105,0.127583 0.82037,0.462314 l -0.44998,0.288091 c -0.0988,-0.176971 -0.20577,-0.246934 -0.37176,-0.246934 -0.16874,0 -0.27574,0.107004 -0.27574,0.246934 0,0.172853 0.107,0.242817 0.3553,0.351193 l 0.14406,0.06173 c 0.49111,0.209894 0.76686,0.425275 0.76686,0.908167 0,0.518561 -0.40882,0.803907 -0.95618,0.803906 z"
                   id="path30024"
                   style="fill:#ffffff;fill-opacity:1;stroke-width:0.0137185" /></g></g></g></g></g></g></g></svg>
