<?xml version="1.0" encoding="UTF-8" standalone="no"?>
<!-- Created with Inkscape (http://www.inkscape.org/) -->

<svg
   width="4.8584595mm"
   height="4.8584518mm"
   viewBox="0 0 4.8584595 4.8584518"
   version="1.1"
   id="svg5"
   xml:space="preserve"
   inkscape:version="1.2.1 (9c6d41e410, 2022-07-14)"
   sodipodi:docname="0_Portifolio.svg"
   inkscape:export-filename="PortifolioDesenho.pdf"
   inkscape:export-xdpi="96"
   inkscape:export-ydpi="96"
   xmlns:inkscape="http://www.inkscape.org/namespaces/inkscape"
   xmlns:sodipodi="http://sodipodi.sourceforge.net/DTD/sodipodi-0.dtd"
   xmlns="http://www.w3.org/2000/svg"
   xmlns:svg="http://www.w3.org/2000/svg"><sodipodi:namedview
     id="namedview7"
     pagecolor="#ffffff"
     bordercolor="#000000"
     borderopacity="0.25"
     inkscape:showpageshadow="2"
     inkscape:pageopacity="0.0"
     inkscape:pagecheckerboard="0"
     inkscape:deskcolor="#d1d1d1"
     inkscape:document-units="mm"
     showgrid="false"
     inkscape:zoom="1.0456808"
     inkscape:cx="368.65936"
     inkscape:cy="768.39895"
     inkscape:window-width="1920"
     inkscape:window-height="991"
     inkscape:window-x="-9"
     inkscape:window-y="-9"
     inkscape:window-maximized="1"
     inkscape:current-layer="g10175"
     showguides="true"
     inkscape:lockguides="false" /><defs
     id="defs2"><linearGradient
       id="linearGradient9088"
       inkscape:swatch="solid"><stop
         style="stop-color:#592121;stop-opacity:1;"
         offset="0"
         id="stop9086" /></linearGradient><linearGradient
       id="linearGradient9080"
       inkscape:swatch="solid"><stop
         style="stop-color:#ababab;stop-opacity:1;"
         offset="0"
         id="stop9078" /></linearGradient></defs><g
     inkscape:label="Camada 1"
     inkscape:groupmode="layer"
     id="layer1"
     transform="translate(-281.91312,-106.6548)"><g
       id="g37540"
       transform="matrix(0.85355307,0,0,0.85355307,44.291238,12.707752)"><g
         id="g37407"><g
           id="g32608"><g
             id="g37274"><g
               id="g32314"><g
                 id="g32305"><g
                   style="color:#ffffff"
                   id="g31986"
                   transform="matrix(0.23716795,0,0,0.23716795,278.39146,109.86826)"><path
                     d="m 11.885984,10.602126 c 1.647,0 2.95,0.436 3.912,1.307 0.961,0.872 1.442,2.06 1.442,3.566 0,1.744 -0.548,3.107 -1.643,4.09 -1.088,0.977 -2.638,1.465 -4.65,1.465 -1.8259997,0 -3.2599997,-0.294 -4.3029997,-0.883 v -2.38 a 7.89,7.89 0 0 0 2.079,0.793 c 0.782,0.186 1.5089997,0.28 2.1799997,0.28 1.184,0 2.086,-0.265 2.704,-0.794 0.619,-0.53 0.928,-1.304 0.928,-2.325 0,-1.952 -1.245,-2.929 -3.733,-2.929 -0.35,0 -0.783,0.038 -1.2969997,0.112 -0.514,0.067 -0.965,0.145 -1.352,0.235 l -1.174,-0.693 0.626,-7.9800008 h 8.4949997 v 2.335 H 9.9189843 l -0.37,4.0460008 c 0.262,-0.044 0.5779997,-0.096 0.9499997,-0.156 0.38,-0.06 0.843,-0.09 1.387,-0.09 z m 0.114,-9.76900079 C 5.3729843,0.83312521 -1.5679971e-5,6.2061252 -1.5679971e-5,12.833126 A 11.998,11.998 0 0 0 6.6499843,23.571126 v -3.675 h 0.138 c 0.01,0.004 4.8599997,2.466 8.0209997,0 3.163,-2.468 1.62,-5.785 1.08,-6.557 -0.54,-0.771 -3.317,-2.083 -5.708,-1.851 -2.3909997,0.231 -2.3909997,0.308 -2.3909997,0.308 l 0.617,-7.0960008 7.6869997,-0.074 v -3.049 a 12,12 0 0 0 -4.095,-0.74399999 z m 4.095,0.74399999 v 3.049 l -7.6879997,0.074 -0.617,7.0960008 c 0,0 0,-0.077 2.3909997,-0.308 2.392,-0.232 5.169,1.08 5.708,1.851 0.54,0.772 2.083,4.089 -1.08,6.557 -3.16,2.467 -8.0129997,0.004 -8.0199997,0 h -0.14 v 3.675 a 12,12 0 0 0 5.3509997,1.262 c 6.628,0 12,-5.373 12,-12 a 12.007,12.007 0 0 0 -7.65,-11.1700008 c -0.085,-0.03 -0.17,-0.059 -0.255,-0.086 z M 6.2989843,23.389126 Z"
                     fill="#ffffff"
                     id="path31977" /></g></g></g></g></g></g></g></g></svg>
