<?xml version="1.0" encoding="UTF-8" standalone="no"?>
<!-- Created with Inkscape (http://www.inkscape.org/) -->

<svg
   width="2.7258911mm"
   height="6.0679779mm"
   viewBox="0 0 2.7258911 6.0679779"
   version="1.1"
   id="svg5"
   xml:space="preserve"
   inkscape:version="1.2.1 (9c6d41e410, 2022-07-14)"
   sodipodi:docname="0_Portifolio.svg"
   inkscape:export-filename="PortifolioDesenho.pdf"
   inkscape:export-xdpi="96"
   inkscape:export-ydpi="96"
   xmlns:inkscape="http://www.inkscape.org/namespaces/inkscape"
   xmlns:sodipodi="http://sodipodi.sourceforge.net/DTD/sodipodi-0.dtd"
   xmlns="http://www.w3.org/2000/svg"
   xmlns:svg="http://www.w3.org/2000/svg"><sodipodi:namedview
     id="namedview7"
     pagecolor="#ffffff"
     bordercolor="#000000"
     borderopacity="0.25"
     inkscape:showpageshadow="2"
     inkscape:pageopacity="0.0"
     inkscape:pagecheckerboard="0"
     inkscape:deskcolor="#d1d1d1"
     inkscape:document-units="mm"
     showgrid="false"
     inkscape:zoom="1.0456808"
     inkscape:cx="368.65936"
     inkscape:cy="768.39895"
     inkscape:window-width="1920"
     inkscape:window-height="991"
     inkscape:window-x="-9"
     inkscape:window-y="-9"
     inkscape:window-maximized="1"
     inkscape:current-layer="g10175"
     showguides="true"
     inkscape:lockguides="false" /><defs
     id="defs2"><linearGradient
       id="linearGradient9088"
       inkscape:swatch="solid"><stop
         style="stop-color:#592121;stop-opacity:1;"
         offset="0"
         id="stop9086" /></linearGradient><linearGradient
       id="linearGradient9080"
       inkscape:swatch="solid"><stop
         style="stop-color:#ababab;stop-opacity:1;"
         offset="0"
         id="stop9078" /></linearGradient></defs><g
     inkscape:label="Camada 1"
     inkscape:groupmode="layer"
     id="layer1"
     transform="translate(-262.47529,-106.10447)"><g
       id="g37540"
       transform="matrix(0.85355307,0,0,0.85355307,44.291238,12.707752)"><g
         id="g37407"><g
           id="g32608"><g
             id="g37274"><g
               id="g37240"><g
                 id="g32237"><g
                   id="g37231"><g
                     style="color:#ffffff"
                     id="g32189"
                     transform="matrix(0.29621145,0,0,0.29621145,253.66082,109.42112)"><path
                       d="M 17.193,9.555 C 15.929,3.975 12.941,2.141 12.62,1.44 12.34,1.046 12.09,0.486 11.885,0 11.849,0.495 11.83,0.685 11.362,1.184 10.639,1.75 6.924,4.866 6.622,11.204 c -0.282,5.912 4.27,9.435 4.888,9.884 l 0.07,0.05 A 73.49,73.49 0 0 1 11.91,24 h 0.481 c 0.114,-1.032 0.284,-2.056 0.51,-3.07 0.417,-0.296 0.604,-0.463 0.85,-0.693 A 11.342,11.342 0 0 0 17.39,11.773 C 17.4,10.959 17.287,10.111 17.193,9.555 Z m -5.336,8.195 c 0,0 0,-8.291 0.275,-8.29 0.213,0 0.49,10.695 0.49,10.695 -0.381,-0.045 -0.765,-1.76 -0.765,-2.405 z"
                       fill="#ffffff"
                       id="path32180" /></g></g></g></g></g></g></g></g></g></svg>
