<?xml version="1.0" encoding="UTF-8" standalone="no"?>
<!-- Created with Inkscape (http://www.inkscape.org/) -->

<svg
   width="6.342865mm"
   height="4.6893463mm"
   viewBox="0 0 6.342865 4.6893463"
   version="1.1"
   id="svg5"
   xml:space="preserve"
   inkscape:version="1.2.1 (9c6d41e410, 2022-07-14)"
   sodipodi:docname="0_Portifolio.svg"
   inkscape:export-filename="PortifolioDesenho.pdf"
   inkscape:export-xdpi="96"
   inkscape:export-ydpi="96"
   xmlns:inkscape="http://www.inkscape.org/namespaces/inkscape"
   xmlns:sodipodi="http://sodipodi.sourceforge.net/DTD/sodipodi-0.dtd"
   xmlns="http://www.w3.org/2000/svg"
   xmlns:svg="http://www.w3.org/2000/svg"><sodipodi:namedview
     id="namedview7"
     pagecolor="#ffffff"
     bordercolor="#000000"
     borderopacity="0.25"
     inkscape:showpageshadow="2"
     inkscape:pageopacity="0.0"
     inkscape:pagecheckerboard="0"
     inkscape:deskcolor="#d1d1d1"
     inkscape:document-units="mm"
     showgrid="false"
     inkscape:zoom="1.0456808"
     inkscape:cx="368.65936"
     inkscape:cy="768.39895"
     inkscape:window-width="1920"
     inkscape:window-height="991"
     inkscape:window-x="-9"
     inkscape:window-y="-9"
     inkscape:window-maximized="1"
     inkscape:current-layer="g10175"
     showguides="true"
     inkscape:lockguides="false" /><defs
     id="defs2"><linearGradient
       id="linearGradient9088"
       inkscape:swatch="solid"><stop
         style="stop-color:#592121;stop-opacity:1;"
         offset="0"
         id="stop9086" /></linearGradient><linearGradient
       id="linearGradient9080"
       inkscape:swatch="solid"><stop
         style="stop-color:#ababab;stop-opacity:1;"
         offset="0"
         id="stop9078" /></linearGradient></defs><g
     inkscape:label="Camada 1"
     inkscape:groupmode="layer"
     id="layer1"
     transform="translate(-283.65647,-85.919057)"><g
       id="g37540"
       transform="matrix(0.85355307,0,0,0.85355307,44.291238,12.707752)"><g
         id="g37407"><g
           id="g32583"><g
             id="g32541"><g
               id="g32328"><path
                 d="m 285.5133,86.328559 c -0.0356,0 -0.0598,0.0047 -0.0848,0.01113 v 0.0044 h 0.004 c 0.0167,0.03506 0.0452,0.06068 0.0663,0.09203 0.0167,0.03607 0.031,0.07214 0.0477,0.107878 l 0.004,-0.0051 c 0.0291,-0.02225 0.0434,-0.05798 0.0434,-0.11226 -0.0124,-0.01584 -0.0142,-0.03169 -0.0248,-0.0472 -0.0124,-0.02259 -0.039,-0.03371 -0.0557,-0.05158 z m -3.29289,4.447929 h -0.28703 a 15.745826,17.143776 0 0 0 -0.0836,-1.486688 h -0.002 l -0.43657,1.486688 h -0.21829 L 280.75896,89.2898 h -0.003 a 22.569409,24.573172 0 0 0 -0.0604,1.486688 h -0.26164 c 0.017,-0.662773 0.0594,-1.284418 0.12695,-1.86426 h 0.35607 l 0.41335,1.370046 h 0.002 l 0.41707,-1.370046 h 0.33904 c 0.0749,0.679292 0.1189,1.301274 0.13252,1.86426 z m 1.24377,-1.375439 c -0.11704,0.689405 -0.27123,1.191036 -0.46196,1.503544 -0.14924,0.241376 -0.31273,0.361727 -0.49014,0.361727 -0.0474,0 -0.10528,-0.01551 -0.17525,-0.04652 v -0.166536 c 0.034,0.0057 0.0743,0.0088 0.11951,0.0088 0.083,0 0.14955,-0.02528 0.20033,-0.07484 0.061,-0.06068 0.0913,-0.128779 0.0913,-0.203956 0,-0.05225 -0.0238,-0.158445 -0.0712,-0.318239 l -0.31397,-1.063943 h 0.28177 l 0.2251,0.795597 c 0.0508,0.180695 0.0721,0.306777 0.0635,0.378583 0.12385,-0.358693 0.20993,-0.75076 0.25854,-1.17418 z m 3.81617,1.375439 h -0.81432 v -1.86426 h 0.27402 v 1.63502 h 0.5403 z m -1.02797,0.04551 -0.31458,-0.168559 c 0.0279,-0.02562 0.0548,-0.05326 0.079,-0.08428 0.13406,-0.170582 0.20063,-0.424094 0.20063,-0.759526 0,-0.616925 -0.22231,-0.925725 -0.66724,-0.925725 -0.21798,0 -0.38828,0.07821 -0.51089,0.234971 -0.13314,0.171256 -0.20002,0.42342 -0.20002,0.756829 0,0.327678 0.0588,0.56838 0.17773,0.721431 0.10837,0.138219 0.27154,0.207328 0.49014,0.207328 0.0817,0 0.15667,-0.01112 0.22448,-0.03304 l 0.41025,0.260255 0.11147,-0.209687 z m -1.01929,-0.4187 c -0.0697,-0.121362 -0.10435,-0.316891 -0.10435,-0.585236 0,-0.469605 0.13128,-0.704576 0.39323,-0.704576 0.13716,0 0.23841,0.0563 0.30251,0.168559 0.0693,0.122036 0.10403,0.315542 0.10403,0.580853 0,0.473314 -0.13128,0.710644 -0.39323,0.710644 -0.13778,0 -0.23841,-0.0563 -0.30281,-0.168559 z m -0.51337,-0.143275 c 0,0.158445 -0.0532,0.288572 -0.15976,0.389708 -0.10652,0.101135 -0.24864,0.151703 -0.42853,0.151703 -0.16813,0 -0.32944,-0.05799 -0.48704,-0.173616 l 0.0734,-0.160468 c 0.13561,0.07417 0.25792,0.110575 0.36845,0.110575 0.1028,0 0.18361,-0.02461 0.24244,-0.07417 a 0.23345956,0.25418663 0 0 0 0.0929,-0.207327 c 0,-0.111249 -0.0712,-0.205642 -0.20064,-0.284865 -0.12013,-0.07181 -0.36009,-0.221486 -0.36009,-0.221486 -0.13067,-0.103495 -0.19569,-0.214407 -0.19569,-0.396787 0,-0.151703 0.0486,-0.273065 0.14553,-0.365773 0.0975,-0.09372 0.22293,-0.139904 0.37774,-0.139904 0.15853,0 0.30344,0.04585 0.43348,0.138219 l -0.0659,0.160467 a 0.8440461,0.91898243 0 0 0 -0.32944,-0.07754 c -0.0876,0 -0.15544,0.02292 -0.2025,0.06945 a 0.21209523,0.23092552 0 0 0 -0.0768,0.17665 c 0,0.110574 0.0725,0.205641 0.20621,0.286549 0.12169,0.07248 0.36753,0.225869 0.36753,0.225869 0.13407,0.102821 0.20064,0.212384 0.20064,0.393753 z m 2.90493,-1.972812 c -0.16565,-0.0047 -0.29414,0.01349 -0.40158,0.06338 -0.031,0.01349 -0.0805,0.01349 -0.0848,0.0563 0.017,0.01787 0.0195,0.0472 0.0341,0.07214 0.0248,0.04517 0.0675,0.105518 0.10713,0.137207 0.0433,0.03708 0.0867,0.07282 0.13221,0.104506 0.0805,0.05394 0.17184,0.08597 0.2508,0.140241 0.0449,0.03169 0.0907,0.07181 0.13623,0.105518 0.0226,0.01686 0.0372,0.0472 0.0663,0.05798 v -0.0067 c -0.0143,-0.02023 -0.0186,-0.04956 -0.0325,-0.07214 -0.0207,-0.02259 -0.0415,-0.04281 -0.0619,-0.06506 a 0.99793124,1.0865298 0 0 0 -0.21519,-0.227553 c -0.0663,-0.04922 -0.21117,-0.117992 -0.23842,-0.200585 l -0.004,-0.0047 c 0.0452,-0.0044 0.0991,-0.02225 0.14243,-0.03574 0.0703,-0.02023 0.13468,-0.01584 0.20745,-0.03573 0.0328,-0.0091 0.0659,-0.02023 0.0991,-0.03169 v -0.02023 c -0.0372,-0.04045 -0.065,-0.0954 -0.10342,-0.133162 a 2.7454721,2.9892213 0 0 0 -0.34183,-0.277447 c -0.065,-0.04517 -0.14738,-0.07417 -0.21581,-0.112598 -0.0248,-0.01348 -0.0663,-0.02023 -0.0805,-0.04281 -0.0372,-0.04922 -0.0588,-0.11462 -0.0851,-0.173279 a 5.4773204,5.9636094 0 0 1 -0.16936,-0.392068 c -0.0372,-0.08832 -0.0598,-0.176312 -0.10528,-0.25722 -0.21364,-0.383303 -0.44493,-0.615577 -0.8007,-0.842794 -0.0765,-0.0472 -0.16812,-0.06742 -0.26504,-0.09237 -0.0517,-0.0027 -0.10341,-0.0067 -0.15481,-0.0091 -0.0341,-0.01584 -0.0669,-0.05866 -0.096,-0.07922 -0.11766,-0.08091 -0.42233,-0.25621 -0.50903,-0.02427 -0.0557,0.146309 0.0827,0.290596 0.13067,0.364761 0.0356,0.05158 0.0805,0.110575 0.10527,0.168559 0.0146,0.03911 0.0186,0.07922 0.0331,0.120014 0.0328,0.09911 0.0641,0.209687 0.10744,0.302395 0.0226,0.0472 0.0474,0.09675 0.0765,0.139229 0.0167,0.02461 0.0452,0.03607 0.0517,0.07653 -0.0291,0.04585 -0.031,0.112597 -0.0477,0.168559 -0.0743,0.255198 -0.0452,0.57074 0.0601,0.758514 0.0331,0.05596 0.11209,0.180021 0.21767,0.132487 0.0929,-0.04045 0.0725,-0.168559 0.0991,-0.281493 0.006,-0.02697 0.002,-0.04484 0.0149,-0.06304 v 0.0051 c 0.0291,0.06338 0.0582,0.123722 0.0848,0.1871 0.0638,0.110575 0.17525,0.225195 0.26845,0.30172 0.0495,0.04045 0.0889,0.110575 0.15079,0.135522 v -0.0067 h -0.005 c -0.0133,-0.01955 -0.031,-0.02899 -0.0477,-0.04484 a 1.0666687,1.16137 0 0 1 -0.10837,-0.134847 2.7123419,2.9531497 0 0 1 -0.23129,-0.41061 c -0.0341,-0.07079 -0.0625,-0.146983 -0.0898,-0.216766 -0.0124,-0.02697 -0.0124,-0.06742 -0.0331,-0.08091 -0.031,0.04922 -0.0765,0.09203 -0.0991,0.152714 -0.0393,0.09709 -0.0434,0.216429 -0.0582,0.340489 -0.008,0.0024 -0.004,0 -0.008,0.0047 -0.0663,-0.01753 -0.0889,-0.09237 -0.11364,-0.155074 -0.0619,-0.160131 -0.0721,-0.417351 -0.0186,-0.601755 0.0145,-0.0472 0.0765,-0.196202 0.0517,-0.241376 -0.013,-0.04281 -0.0539,-0.06742 -0.0765,-0.102146 a 0.76725835,0.83537728 0 0 1 -0.0743,-0.14395 c -0.0496,-0.126082 -0.0743,-0.265648 -0.12819,-0.39173 -0.0248,-0.05832 -0.0681,-0.11934 -0.10342,-0.172941 -0.0393,-0.06068 -0.0827,-0.103496 -0.11394,-0.175302 -0.0102,-0.02461 -0.0248,-0.0654 -0.008,-0.09237 0.004,-0.0182 0.013,-0.02528 0.0291,-0.03034 0.0272,-0.02427 0.10372,0.0074 0.13066,0.0209 0.0765,0.03371 0.14088,0.0654 0.20497,0.112597 0.0291,0.02225 0.0604,0.06506 0.0975,0.07619 h 0.0433 c 0.0663,0.01584 0.14088,0.0047 0.20281,0.02461 0.10992,0.03843 0.209,0.09439 0.29786,0.155074 a 1.8432159,2.0068607 0 0 1 0.64558,0.770651 c 0.0248,0.05192 0.0356,0.09945 0.0582,0.153389 0.0434,0.111248 0.0969,0.223509 0.14088,0.331049 0.0433,0.106192 0.0851,0.214407 0.14738,0.302395 0.031,0.0472 0.15543,0.07181 0.21117,0.09642 0.0412,0.02023 0.10527,0.03877 0.14243,0.06338 0.0712,0.0472 0.14057,0.101135 0.20745,0.153052 0.0341,0.02562 0.13716,0.08192 0.14335,0.12743 z"
                 fill="#ffffff"
                 id="path32072"
                 style="color:#ffffff;stroke-width:0.323082" /></g></g></g></g></g></g></svg>
