<?xml version="1.0" encoding="UTF-8" standalone="no"?>
<!-- Created with Inkscape (http://www.inkscape.org/) -->

<svg
   width="8.1963387mm"
   height="8.1963387mm"
   viewBox="0 0 8.1963387 8.1963387"
   version="1.1"
   id="svg5"
   xml:space="preserve"
   inkscape:version="1.2.1 (9c6d41e410, 2022-07-14)"
   sodipodi:docname="0_Portifolio.svg"
   inkscape:export-filename="PortifolioDesenho.pdf"
   inkscape:export-xdpi="96"
   inkscape:export-ydpi="96"
   xmlns:inkscape="http://www.inkscape.org/namespaces/inkscape"
   xmlns:sodipodi="http://sodipodi.sourceforge.net/DTD/sodipodi-0.dtd"
   xmlns="http://www.w3.org/2000/svg"
   xmlns:svg="http://www.w3.org/2000/svg"><sodipodi:namedview
     id="namedview7"
     pagecolor="#ffffff"
     bordercolor="#000000"
     borderopacity="0.25"
     inkscape:showpageshadow="2"
     inkscape:pageopacity="0.0"
     inkscape:pagecheckerboard="0"
     inkscape:deskcolor="#d1d1d1"
     inkscape:document-units="mm"
     showgrid="false"
     inkscape:zoom="0.52284038"
     inkscape:cx="627.34251"
     inkscape:cy="505.89053"
     inkscape:window-width="1920"
     inkscape:window-height="991"
     inkscape:window-x="-9"
     inkscape:window-y="-9"
     inkscape:window-maximized="1"
     inkscape:current-layer="layer1"
     showguides="true"
     inkscape:lockguides="false" /><defs
     id="defs2"><linearGradient
       id="linearGradient9088"
       inkscape:swatch="solid"><stop
         style="stop-color:#592121;stop-opacity:1;"
         offset="0"
         id="stop9086" /></linearGradient><linearGradient
       id="linearGradient9080"
       inkscape:swatch="solid"><stop
         style="stop-color:#ababab;stop-opacity:1;"
         offset="0"
         id="stop9078" /></linearGradient><filter
       inkscape:collect="always"
       style="color-interpolation-filters:sRGB"
       id="filter3894"
       x="-0.76468366"
       y="-0.76468366"
       width="2.5293674"
       height="2.5293674"><feGaussianBlur
         inkscape:collect="always"
         stdDeviation="3.746183"
         id="feGaussianBlur3896" /></filter></defs><g
     inkscape:label="Camada 1"
     inkscape:groupmode="layer"
     id="layer1"
     transform="translate(-2.512776,-1.721405)"><rect
       style="fill:#fefafa;fill-opacity:1;stroke-width:0.21742"
       id="rect618-6-4"
       width="210.01071"
       height="149.81934"
       x="0.19244981"
       y="0.0024381708"
       ry="0.19405317" /><circle
       style="mix-blend-mode:normal;fill:#92242e;fill-opacity:1;stroke-width:0.190195;filter:url(#filter3894)"
       id="path492-8"
       cx="4.1750875"
       cy="6.4827752"
       r="5.8787961"
       transform="matrix(4.3340129,0,0,4.3340129,31.177493,38.547396)" /><g
       id="g1349"
       transform="translate(0,0.80605116)"
       inkscape:export-filename=".\nav-logo.svg"
       inkscape:export-xdpi="96"
       inkscape:export-ydpi="96"><circle
         style="fill:#721c24;fill-opacity:1;stroke-width:0.132587"
         id="path492"
         cx="6.6109447"
         cy="5.0135226"
         r="4.0981688" /><circle
         style="fill:#ffffff;fill-opacity:1;stroke-width:0.15175"
         id="path396-9"
         cx="6.9654937"
         cy="5.2164702"
         r="3.4905918" /><g
         id="g490"
         transform="matrix(0.23515353,0,0,0.21312345,2.8141521,1.2646474)"><path
           d="m 11.622,24.74 c 0,0 -1.23,0.748 0.855,0.962 2.51,0.32 3.847,0.267 6.625,-0.267 a 10.02,10.02 0 0 0 1.763,0.855 c -6.25,2.672 -14.16,-0.16 -9.244,-1.55 z m -0.8,-3.473 c 0,0 -1.336,1.015 0.748,1.23 2.725,0.267 4.862,0.32 8.55,-0.427 a 3.26,3.26 0 0 0 1.282,0.801 c -7.534,2.244 -15.976,0.214 -10.58,-1.603 z m 14.747,6.09 c 0,0 0.908,0.748 -1.015,1.336 -3.58,1.07 -15.014,1.39 -18.22,0 -1.122,-0.48 1.015,-1.175 1.7,-1.282 0.695,-0.16 1.07,-0.16 1.07,-0.16 -1.23,-0.855 -8.175,1.763 -3.526,2.51 12.77,2.084 23.296,-0.908 19.983,-2.404 z M 12.2,17.633 c 0,0 -5.824,1.39 -2.084,1.87 1.603,0.214 4.755,0.16 7.694,-0.053 2.404,-0.214 4.81,-0.64 4.81,-0.64 0,0 -0.855,0.374 -1.443,0.748 -5.93,1.55 -17.312,0.855 -14.052,-0.748 2.778,-1.336 5.076,-1.175 5.076,-1.175 z m 10.42,5.824 c 5.984,-3.1 3.206,-6.09 1.282,-5.717 -0.48,0.107 -0.695,0.214 -0.695,0.214 0,0 0.16,-0.32 0.534,-0.427 3.794,-1.336 6.786,4.007 -1.23,6.09 0,0 0.053,-0.053 0.107,-0.16 z m -9.83,8.442 c 5.77,0.374 14.587,-0.214 14.8,-2.94 0,0 -0.427,1.07 -4.755,1.87 -4.916,0.908 -11.007,0.8 -14.587,0.214 0,0 0.748,0.64 4.542,0.855 z"
           fill="#4e7896"
           id="path478" /><path
           d="m 18.996,0.001 c 0,0 3.313,3.366 -3.152,8.442 -5.183,4.114 -1.175,6.465 0,9.137 -3.046,-2.725 -5.236,-5.13 -3.74,-7.373 2.19,-3.314 8.228,-4.907 6.892,-10.206 z m -1.7,15.335 c 1.55,1.763 -0.427,3.366 -0.427,3.366 0,0 3.954,-2.03 2.137,-4.542 -1.656,-2.404 -2.94,-3.58 4.007,-7.587 0,0 -10.953,2.725 -5.717,8.763 z"
           fill="#f58219"
           id="path480" /></g></g></g></svg>
