<?xml version="1.0" encoding="UTF-8" standalone="no"?>
<!-- Created with Inkscape (http://www.inkscape.org/) -->

<svg
   width="4.9683533mm"
   height="4.9683914mm"
   viewBox="0 0 4.9683533 4.9683914"
   version="1.1"
   id="svg5"
   xml:space="preserve"
   inkscape:version="1.2.1 (9c6d41e410, 2022-07-14)"
   sodipodi:docname="0_Portifolio.svg"
   inkscape:export-filename="PortifolioDesenho.pdf"
   inkscape:export-xdpi="96"
   inkscape:export-ydpi="96"
   xmlns:inkscape="http://www.inkscape.org/namespaces/inkscape"
   xmlns:sodipodi="http://sodipodi.sourceforge.net/DTD/sodipodi-0.dtd"
   xmlns="http://www.w3.org/2000/svg"
   xmlns:svg="http://www.w3.org/2000/svg"><sodipodi:namedview
     id="namedview7"
     pagecolor="#ffffff"
     bordercolor="#000000"
     borderopacity="0.25"
     inkscape:showpageshadow="2"
     inkscape:pageopacity="0.0"
     inkscape:pagecheckerboard="0"
     inkscape:deskcolor="#d1d1d1"
     inkscape:document-units="mm"
     showgrid="false"
     inkscape:zoom="1.0456808"
     inkscape:cx="368.65936"
     inkscape:cy="768.39895"
     inkscape:window-width="1920"
     inkscape:window-height="991"
     inkscape:window-x="-9"
     inkscape:window-y="-9"
     inkscape:window-maximized="1"
     inkscape:current-layer="g10175"
     showguides="true"
     inkscape:lockguides="false" /><defs
     id="defs2"><linearGradient
       id="linearGradient9088"
       inkscape:swatch="solid"><stop
         style="stop-color:#592121;stop-opacity:1;"
         offset="0"
         id="stop9086" /></linearGradient><linearGradient
       id="linearGradient9080"
       inkscape:swatch="solid"><stop
         style="stop-color:#ababab;stop-opacity:1;"
         offset="0"
         id="stop9078" /></linearGradient></defs><g
     inkscape:label="Camada 1"
     inkscape:groupmode="layer"
     id="layer1"
     transform="translate(-304.77341,-85.923917)"><g
       id="g37540"
       transform="matrix(0.85355307,0,0,0.85355307,44.291238,12.707752)"><g
         id="g37407"><g
           id="g32583"><g
             id="g32550"><g
               id="g32320"><g
                 style="color:#ffffff;fill:none"
                 id="g32092"
                 transform="matrix(0.26458333,0,0,0.26458333,304.90938,85.513517)"><path
                   d="m 16.8052,1 c -0.8811,0.00636 -1.757,0.13067 -2.6031,0.36942 L 14.1426,1.38775 C 13.6089,1.29626 13.0687,1.24568 12.5269,1.2365 11.4138,1.21817 10.4576,1.48034 9.68659,1.91667 8.92692,1.66092 7.35089,1.22 5.68981,1.308 4.5333,1.36942 3.27096,1.71042 2.33554,2.66835 1.40296,3.62627 0.909738,5.10854 1.01367,7.12522 c 0.02835,0.55642 0.19181,1.46393 0.46299,2.63911 0.27117,1.17517 0.65195,2.55107 1.12722,3.80607 0.47527,1.2558 0.99589,2.3833 1.80942,3.1497 0.40629,0.384 0.96565,0.7067 1.62517,0.6801 0.46298,-0.0183 0.88156,-0.2154 1.2425,-0.506 0.17574,0.2246 0.36377,0.3227 0.53479,0.4134 0.21543,0.1146 0.42519,0.1925 0.64251,0.2439 0.39023,0.0944 1.05825,0.2209 1.84063,0.0917 0.2664,-0.0431 0.547,-0.1275 0.8267,-0.2476 0.0104,0.3026 0.0227,0.5986 0.035,0.8984 0.0387,0.9497 0.0633,1.8269 0.3571,2.596 0.0473,0.1256 0.1767,0.7728 0.687,1.3439 0.5102,0.572 1.5099,0.9286 2.6484,0.692 0.8032,-0.1668 1.8246,-0.4675 2.503,-1.4043 0.6708,-0.9258 0.9732,-2.2541 1.0327,-4.4083 0.0151,-0.1164 0.0331,-0.2154 0.052,-0.308 l 0.1597,0.0138 h 0.0189 c 0.8569,0.0375 1.7867,-0.0807 2.5634,-0.4309 0.6878,-0.3089 1.2085,-0.6215 1.5873,-1.1761 0.0945,-0.1375 0.1985,-0.3034 0.2268,-0.5894 0.0284,-0.286 -0.1408,-0.7333 -0.4214,-0.9396 -0.5622,-0.4143 -0.9156,-0.2567 -1.2945,-0.1806 -0.3732,0.0801 -0.7535,0.1249 -1.1357,0.1339 1.0923,-1.7848 1.8756,-3.68049 2.3225,-5.358 C 22.7324,7.28839 22.8807,6.37538 22.893,5.57696 22.9053,4.77853 22.8382,4.07178 22.345,3.46036 20.8039,1.55 18.6373,1.022 16.9611,1.00367 16.9091,1.00275 16.8572,1.00183 16.8052,1.00275 Z m -0.0444,0.58667 c 1.5855,-0.01466 3.6113,0.41709 5.0654,2.22019 0.327,0.40517 0.4243,0.99734 0.4129,1.72701 -0.0122,0.72876 -0.1511,1.60144 -0.4053,2.55753 -0.4932,1.85168 -1.4249,4.0104 -2.7373,5.9474 0.0464,0.0319 0.0965,0.0584 0.1493,0.0788 0.274,0.11 0.8986,0.2044 2.1448,-0.044 0.3137,-0.0642 0.5433,-0.1072 0.7815,0.0688 0.0578,0.0476 0.1035,0.1075 0.1335,0.1751 0.03,0.0676 0.0435,0.141 0.0394,0.2145 -0.0128,0.1112 -0.0551,0.2174 -0.1229,0.308 -0.2409,0.351 -0.7162,0.6838 -1.3256,0.9579 -0.5395,0.2438 -1.3134,0.3712 -1.9994,0.3786 -0.3439,0.0036 -0.6614,-0.022 -0.9306,-0.1036 l -0.0171,-0.0064 c -0.1039,0.9716 -0.3429,2.8902 -0.4988,3.7657 -0.1248,0.7058 -0.343,1.2668 -0.7597,1.6867 -0.4158,0.4198 -1.0044,0.6728 -1.7962,0.8378 -0.9808,0.2044 -1.696,-0.0156 -2.1571,-0.3923 -0.4602,-0.3759 -0.6709,-0.8746 -0.7975,-1.1798 -0.0869,-0.2108 -0.1323,-0.484 -0.1757,-0.8488 -0.0435,-0.3649 -0.0756,-0.8113 -0.0974,-1.3146 -0.0289,-0.7705 -0.0384,-1.5417 -0.0283,-2.3127 -0.4097,0.364 -0.9188,0.6059 -1.4664,0.6966 C 9.52124,17.1124 8.94015,17.007 8.59339,16.9226 8.42244,16.881 8.25743,16.8191 8.10205,16.7384 7.94143,16.655 7.78836,16.5606 7.68631,16.3745 7.62635,16.2679 7.60727,16.1442 7.63246,16.0252 7.66439,15.9047 7.73688,15.7979 7.83844,15.7218 8.02552,15.5742 8.27308,15.4917 8.6463,15.4165 9.32566,15.2809 9.56282,15.1883 9.70738,15.0774 9.83021,14.982 9.96911,14.7895 10.2148,14.5072 10.2136,14.4947 10.2127,14.4822 10.2119,14.4696 9.77228,14.4576 9.34173,14.3452 8.95527,14.1415 8.81354,14.2863 8.08977,15.0288 7.20727,16.0591 6.83593,16.49 6.42586,16.7375 5.99311,16.7549 5.56037,16.7732 5.16919,16.5615 4.8366,16.2489 4.17236,15.6228 3.64229,14.5457 3.18025,13.3284 2.71916,12.111 2.34404,10.7553 2.07759,9.60024 1.8102,8.44523 1.6524,7.51389 1.62973,7.06472 1.53051,5.1562 1.99066,3.87011 2.77963,3.05885 3.56953,2.24759 4.65235,1.94051 5.70777,1.88184 7.60222,1.77642 9.40125,2.41718 9.76502,2.55468 10.4661,2.09268 11.3694,1.80484 12.4976,1.82317 c 0.5356,0.00729 1.0685,0.07434 1.5883,0.19984 L 14.1048,2.01476 C 14.3336,1.93674 14.5667,1.87125 14.803,1.81859 15.4448,1.67335 16.1009,1.5962 16.7599,1.58851 Z m 0.1436,0.61417 h -0.1379 c -0.5414,0.00733 -1.0806,0.06628 -1.6101,0.17601 1.1773,0.506 2.0664,1.28517 2.6929,2.06251 0.4351,0.53822 0.7948,1.13006 1.0696,1.76002 0.1039,0.242 0.1738,0.44642 0.2135,0.60501 0.0199,0.07975 0.0331,0.14666 0.0378,0.21633 0.0019,0.03483 0.0038,0.07058 -0.0113,0.132 0,0.00275 -0.0047,0.00917 -0.0057,0.01192 0.0284,0.80301 -0.1767,1.34751 -0.2013,2.11385 -0.0188,0.55551 0.1276,1.20821 0.1635,1.92041 0.034,0.6692 -0.0491,1.4044 -0.497,2.1258 0.0378,0.044 0.0718,0.088 0.1077,0.132 1.1849,-1.8104 2.039,-3.81337 2.4945,-5.52114 0.2437,-0.91942 0.3732,-1.75268 0.3845,-2.41269 0.0095,-0.66 -0.1171,-1.13851 -0.2787,-1.33834 -1.268,-1.57302 -2.9839,-1.9736 -4.422,-1.9846 z M 12.3785,2.43551 C 11.2617,2.43826 10.4604,2.76552 9.85289,3.25594 9.22645,3.76286 8.80598,4.45678 8.53008,5.1672 8.20221,6.01055 8.08977,6.82639 8.04536,7.38006 L 8.05765,7.37272 C 8.39496,7.18939 8.83811,7.00605 9.31243,6.89972 9.78675,6.7943 10.2979,6.7613 10.7609,6.93547 c 0.463,0.17417 0.8457,0.58392 0.9846,1.20543 0.6651,2.9856 -0.207,4.0957 -0.5282,4.9335 -0.1219,0.3037 -0.2263,0.6137 -0.3128,0.9286 0.0407,-0.0091 0.0813,-0.0201 0.1219,-0.0238 0.2268,-0.0183 0.4044,0.055 0.5102,0.099 0.3232,0.1302 0.5452,0.4033 0.6652,0.715 0.0312,0.0816 0.0539,0.1696 0.0671,0.2603 0.014,0.0373 0.0204,0.0768 0.0189,0.1165 -0.0358,1.1419 -0.0317,2.2848 0.0123,3.4265 0.0217,0.4932 0.0538,0.9277 0.0945,1.2705 0.0406,0.3419 0.0982,0.6023 0.1351,0.6903 0.1209,0.2933 0.2976,0.6774 0.617,0.9386 0.3194,0.2604 0.7776,0.4345 1.6148,0.2604 0.7256,-0.1513 1.1735,-0.3612 1.473,-0.6628 0.2986,-0.3016 0.4772,-0.7214 0.5915,-1.364 0.171,-0.9625 0.515,-3.7538 0.5565,-4.279 -0.0189,-0.396 0.0416,-0.7004 0.172,-0.9323 0.1342,-0.2383 0.342,-0.3841 0.5216,-0.4629 0.0897,-0.0394 0.1738,-0.066 0.2428,-0.0853 -0.073,-0.1018 -0.1496,-0.2011 -0.2296,-0.2979 C 17.8305,13.3676 17.6185,13.0282 17.46,12.6647 17.3841,12.5146 17.3031,12.3669 17.2172,12.2219 17.0915,12.0019 16.9328,11.7269 16.7665,11.418 16.4339,10.7993 16.072,10.0494 15.884,9.31882 15.6969,8.58915 15.6695,7.83381 16.1495,7.30122 16.5747,6.82822 17.3211,6.63205 18.4417,6.74205 18.4086,6.6458 18.3888,6.56605 18.3331,6.43772 18.0797,5.85919 17.749,5.31552 17.3495,4.8207 16.3999,3.64277 14.8626,2.47493 12.4872,2.43735 H 12.3785 Z M 6.10272,2.48318 c -0.12,0 -0.24,0.00367 -0.35905,0.01008 -0.95431,0.05317 -1.85666,0.32176 -2.502,0.98543 -0.64629,0.66367 -1.07148,1.75176 -0.97888,3.55303 0.01795,0.341 0.17102,1.29618 0.43369,2.43102 0.26173,1.13486 0.63306,2.47046 1.07904,3.65016 0.44692,1.1798 0.98832,2.2065 1.50233,2.6923 0.25889,0.2429 0.48377,0.341 0.68786,0.3328 C 6.17075,16.1288 6.41736,16.0142 6.71877,15.6631 7.26831,15.02 7.83866,14.3939 8.42898,13.7858 8.01013,13.433 7.68957,12.9835 7.49687,12.4789 7.30416,11.9742 7.24551,11.4307 7.32632,10.8983 7.42364,10.2208 7.43687,9.58741 7.42553,9.08691 7.41419,8.59923 7.37829,8.27473 7.37829,8.07215 c -1.7e-4,-0.00581 -1.7e-4,-0.01162 0,-0.01742 V 8.05015 L 7.37734,8.04465 V 8.04373 C 7.37678,6.98845 7.56607,5.94117 7.9367,4.94904 8.20127,4.26703 8.59527,3.57402 9.18582,3.01302 8.60567,2.82785 7.57576,2.54551 6.46082,2.49235 6.34124,2.48639 6.22152,2.48333 6.10177,2.48318 Z M 17.8172,7.32506 C 17.1756,7.33331 16.8156,7.49373 16.6266,7.70364 16.3592,8.00156 16.3337,8.52407 16.5,9.16757 c 0.1654,0.64443 0.5074,1.36493 0.8287,1.96353 0.1606,0.2997 0.3165,0.5692 0.4422,0.7883 0.1266,0.22 0.2192,0.3759 0.2759,0.5088 0.0519,0.1228 0.1096,0.231 0.1682,0.3318 0.2485,-0.5087 0.2929,-1.0083 0.2673,-1.529 -0.033,-0.6444 -0.187,-1.3035 -0.1644,-1.97084 0.0256,-0.78009 0.1843,-1.28793 0.1985,-1.8911 C 18.2845,7.33992 18.051,7.32522 17.8172,7.32506 Z M 10.0371,7.43047 C 9.84115,7.43225 9.64595,7.455 9.4551,7.49831 9.07473,7.58797 8.70837,7.72638 8.36567,7.9099 8.24975,7.97022 8.13942,8.04015 8.03591,8.1189 L 8.01513,8.13723 C 8.0208,8.27107 8.0482,8.59557 8.05954,9.07316 8.07087,9.59566 8.05765,10.2621 7.95371,10.9835 7.72789,12.551 8.90047,13.849 10.2781,13.8509 10.3584,13.5291 10.4907,13.2028 10.623,12.859 11.0066,11.8562 11.7615,11.1247 11.1256,8.27015 11.0217,7.80264 10.8157,7.61381 10.5322,7.50748 10.3734,7.45296 10.2056,7.42687 10.0371,7.43047 Z m 7.4805,0.18701 h 0.0473 c 0.0623,0.00183 0.12,0.00825 0.1701,0.02016 0.051,0.011 0.0944,0.0275 0.1304,0.05042 0.0184,0.01107 0.0342,0.02576 0.0464,0.04313 0.0122,0.01737 0.0205,0.03702 0.0244,0.0577 l -9e-4,0.00734 h 9e-4 -9e-4 c 0.0018,0.04351 -0.0097,0.08658 -0.0331,0.12375 -0.0279,0.05031 -0.0628,0.09659 -0.1039,0.1375 -0.0959,0.1024 -0.2243,0.1708 -0.3648,0.19433 C 17.2968,8.26785 17.1588,8.23421 17.0462,8.1574 17,8.1273 16.9587,8.09086 16.9233,8.04923 16.8927,8.01652 16.8721,7.97622 16.8638,7.93281 c -0.002,-0.02115 5e-4,-0.04246 0.0073,-0.06264 0.0069,-0.02018 0.0179,-0.03879 0.0324,-0.05469 0.031,-0.03418 0.0685,-0.0622 0.1105,-0.0825 0.0907,-0.0495 0.2136,-0.08617 0.3525,-0.10634 0.0519,-0.00733 0.103,-0.011 0.1511,-0.01191 z m -7.3888,0.154 c 0.0501,0 0.103,0.00458 0.1568,0.01191 0.1446,0.01925 0.2731,0.05684 0.3714,0.11184 0.0479,0.02427 0.0906,0.05726 0.1256,0.09717 0.0191,0.02117 0.0335,0.04593 0.0423,0.07275 0.0088,0.02681 0.0118,0.0551 0.0088,0.08308 C 10.8246,8.20094 10.8,8.24996 10.7628,8.2894 10.7241,8.33544 10.6786,8.37561 10.6277,8.40857 10.5048,8.49303 10.3539,8.52996 10.2044,8.51215 10.0516,8.48779 9.91181,8.41415 9.80754,8.30315 9.76318,8.25845 9.72563,8.20783 9.69604,8.15281 9.6649,8.10441 9.65127,8.04732 9.6573,7.99056 9.67148,7.89156 9.75557,7.84023 9.83777,7.81181 9.93141,7.78278 10.0297,7.77036 10.1278,7.77514 Z m 8.5605,6.73112 -0.0029,9e-4 c -0.1389,0.0486 -0.2532,0.0688 -0.3496,0.11 -0.0974,0.0364 -0.1778,0.1062 -0.2258,0.1962 -0.0595,0.1054 -0.1105,0.2924 -0.0954,0.6105 0.0427,0.0286 0.09,0.0502 0.1398,0.0642 0.1616,0.0476 0.4328,0.0788 0.7351,0.0742 0.6029,-0.0064 1.3446,-0.143 1.7386,-0.3208 0.3232,-0.1457 0.6233,-0.3355 0.891,-0.5638 h -10e-4 c -1.3162,0.264 -2.0598,0.1935 -2.5161,0.011 -0.1134,-0.0457 -0.2191,-0.1075 -0.3137,-0.1833 z m -7.5882,0.0862 h -0.0199 c -0.0501,0.0046 -0.1228,0.0211 -0.2636,0.1723 -0.3288,0.3575 -0.4441,0.5821 -0.7153,0.792 -0.27114,0.209 -0.62358,0.3209 -1.3275,0.4611 -0.22299,0.044 -0.35055,0.0926 -0.43558,0.132 0.0274,0.022 0.02456,0.0275 0.06614,0.0486 0.10299,0.055 0.23527,0.1036 0.34204,0.1302 0.30236,0.0733 0.79935,0.1586 1.3181,0.0733 0.5187,-0.0862 1.0582,-0.3272 1.5184,-0.9533 0.0794,-0.1082 0.0879,-0.2677 0.0227,-0.4391 -0.0662,-0.1714 -0.2107,-0.319 -0.3128,-0.3603 -0.0607,-0.0284 -0.1258,-0.047 -0.1927,-0.055 z"
                   fill="#ffffff"
                   id="path32083" /></g></g></g></g></g></g></g></svg>
