<?xml version="1.0" encoding="UTF-8" standalone="no"?>
<!-- Created with Inkscape (http://www.inkscape.org/) -->

<svg
   width="6.0094604mm"
   height="5.3948784mm"
   viewBox="0 0 6.0094604 5.3948784"
   version="1.1"
   id="svg5"
   xml:space="preserve"
   inkscape:version="1.2.1 (9c6d41e410, 2022-07-14)"
   sodipodi:docname="0_Portifolio.svg"
   inkscape:export-filename="PortifolioDesenho.pdf"
   inkscape:export-xdpi="96"
   inkscape:export-ydpi="96"
   xmlns:inkscape="http://www.inkscape.org/namespaces/inkscape"
   xmlns:sodipodi="http://sodipodi.sourceforge.net/DTD/sodipodi-0.dtd"
   xmlns="http://www.w3.org/2000/svg"
   xmlns:svg="http://www.w3.org/2000/svg"><sodipodi:namedview
     id="namedview7"
     pagecolor="#ffffff"
     bordercolor="#000000"
     borderopacity="0.25"
     inkscape:showpageshadow="2"
     inkscape:pageopacity="0.0"
     inkscape:pagecheckerboard="0"
     inkscape:deskcolor="#d1d1d1"
     inkscape:document-units="mm"
     showgrid="false"
     inkscape:zoom="1.0456808"
     inkscape:cx="368.65936"
     inkscape:cy="768.39895"
     inkscape:window-width="1920"
     inkscape:window-height="991"
     inkscape:window-x="-9"
     inkscape:window-y="-9"
     inkscape:window-maximized="1"
     inkscape:current-layer="g10175"
     showguides="true"
     inkscape:lockguides="false" /><defs
     id="defs2"><linearGradient
       id="linearGradient9088"
       inkscape:swatch="solid"><stop
         style="stop-color:#592121;stop-opacity:1;"
         offset="0"
         id="stop9086" /></linearGradient><linearGradient
       id="linearGradient9080"
       inkscape:swatch="solid"><stop
         style="stop-color:#ababab;stop-opacity:1;"
         offset="0"
         id="stop9078" /></linearGradient></defs><g
     inkscape:label="Camada 1"
     inkscape:groupmode="layer"
     id="layer1"
     transform="translate(-263.39329,-45.193728)"><g
       id="g37540"
       transform="matrix(0.85355307,0,0,0.85355307,44.291238,12.707752)"><g
         id="g37407"><g
           id="g32490"><g
             id="g32445"><g
               id="g32437"><path
                 d="m 263.64459,40.840293 -1.38756,-2.400929 c -0.1201,-0.208457 -0.41557,-0.379659 -0.65717,-0.379659 h -2.77229 c -0.24026,0 -0.53708,0.171202 -0.65717,0.379659 l -1.38619,2.400929 c -0.12013,0.208458 -0.12013,0.549453 0,0.757939 l 1.38615,2.402278 c 0.1201,0.208486 0.41557,0.379688 0.65718,0.379688 h 2.77367 c 0.24025,0 0.53566,-0.171202 0.65717,-0.379659 l 1.38616,-2.402278 c 0.12011,-0.208487 0.12011,-0.54951 0,-0.757968 z m -3.7305,-1.452427 c 0,-0.157384 0.1284,-0.285786 0.28579,-0.285786 0.15738,0 0.28579,0.128402 0.28579,0.285786 v 1.707821 c 0,0.157414 -0.12841,0.285785 -0.28579,0.285785 -0.15739,0 -0.28579,-0.128371 -0.28579,-0.285785 z m 0.28579,3.646219 c -1.06861,0 -1.9384,-0.869797 -1.9384,-1.938398 7.5e-4,-0.612993 0.2913,-1.188701 0.78281,-1.555951 a 0.25395675,0.25395675 0 0 1 0.3562,0.05246 0.25395675,0.25395675 0 0 1 -0.0524,0.35622 c -0.63369,0.470776 -0.76623,1.366797 -0.29546,2.0005 0.4708,0.633732 1.36683,0.766242 2.00053,0.295466 0.36312,-0.269211 0.57711,-0.695835 0.57711,-1.148687 a 1.4366143,1.4366143 0 0 0 -0.58263,-1.151415 c -0.11323,-0.08284 -0.13669,-0.243015 -0.0539,-0.35622 0.0828,-0.113235 0.24299,-0.136703 0.35624,-0.05383 0.49561,0.365843 0.78695,0.945716 0.78832,1.561466 0,1.06998 -0.8698,1.938398 -1.93839,1.938398 z"
                 id="path30685"
                 style="fill:#ffffff;fill-opacity:1;stroke-width:0.293354" /></g></g></g></g></g></g></svg>
