<?xml version="1.0" encoding="UTF-8" standalone="no"?>
<!-- Created with Inkscape (http://www.inkscape.org/) -->

<svg
   width="4.3166809mm"
   height="6.030304mm"
   viewBox="0 0 4.3166809 6.030304"
   version="1.1"
   id="svg5"
   xml:space="preserve"
   inkscape:version="1.2.1 (9c6d41e410, 2022-07-14)"
   sodipodi:docname="0_Portifolio.svg"
   inkscape:export-filename="PortifolioDesenho.pdf"
   inkscape:export-xdpi="96"
   inkscape:export-ydpi="96"
   xmlns:inkscape="http://www.inkscape.org/namespaces/inkscape"
   xmlns:sodipodi="http://sodipodi.sourceforge.net/DTD/sodipodi-0.dtd"
   xmlns="http://www.w3.org/2000/svg"
   xmlns:svg="http://www.w3.org/2000/svg"><sodipodi:namedview
     id="namedview7"
     pagecolor="#ffffff"
     bordercolor="#000000"
     borderopacity="0.25"
     inkscape:showpageshadow="2"
     inkscape:pageopacity="0.0"
     inkscape:pagecheckerboard="0"
     inkscape:deskcolor="#d1d1d1"
     inkscape:document-units="mm"
     showgrid="false"
     inkscape:zoom="1.0456808"
     inkscape:cx="368.65936"
     inkscape:cy="768.39895"
     inkscape:window-width="1920"
     inkscape:window-height="991"
     inkscape:window-x="-9"
     inkscape:window-y="-9"
     inkscape:window-maximized="1"
     inkscape:current-layer="g10175"
     showguides="true"
     inkscape:lockguides="false" /><defs
     id="defs2"><linearGradient
       id="linearGradient9088"
       inkscape:swatch="solid"><stop
         style="stop-color:#592121;stop-opacity:1;"
         offset="0"
         id="stop9086" /></linearGradient><linearGradient
       id="linearGradient9080"
       inkscape:swatch="solid"><stop
         style="stop-color:#ababab;stop-opacity:1;"
         offset="0"
         id="stop9078" /></linearGradient></defs><g
     inkscape:label="Camada 1"
     inkscape:groupmode="layer"
     id="layer1"
     transform="translate(-284.66947,-44.846629)"><g
       id="g37540"
       transform="matrix(0.85355307,0,0,0.85355307,44.291238,12.707752)"><g
         id="g37407"><g
           id="g32490"><g
             id="g32431"><g
               id="g32422"><path
                 d="m 286.67804,38.261222 -2.53072,-0.608174 -2.5266,0.608174 v 1.946394 h 1.34146 a 1.1197943,1.1197943 0 0 0 0,0.280832 h -1.34146 v 0.914322 c 0,2.098583 2.52689,3.315226 2.52689,3.315226 0,0 2.52632,-1.216643 2.52632,-3.314049 v -0.914616 h -1.33792 a 1.0644522,1.0644522 0 0 0 0,-0.280832 h 1.34174 z m -2.52866,3.001426 h -0.003 a 0.9152052,0.9152052 0 1 1 0.003,0 z m -0.003,-1.347933 a 0.23667578,0.23667578 0 0 0 -0.10892,0.447447 v 0.06122 l 0.07,0.06977 v 0.04681 l 0.0469,0.04681 v 0.04681 l -0.0412,0.04121 0.0442,0.07242 v 0.04681 l -0.0471,0.05565 0.0656,0.06535 0.0724,-0.07242 v -0.476001 a 0.23667578,0.23667578 0 0 0 -0.10181,-0.451863 z m 0,0.246096 a 0.08801748,0.08801748 0 1 1 0.0877,-0.08802 0.08801748,0.08801748 0 0 1 -0.0877,0.08831 z"
                 id="path30701"
                 style="fill:#fcfbfb;fill-opacity:1;stroke-width:0.294372" /></g></g></g></g></g></g></svg>
