<?xml version="1.0" encoding="UTF-8" standalone="no"?>
<!-- Created with Inkscape (http://www.inkscape.org/) -->

<svg
   width="8.0967865mm"
   height="8.0967989mm"
   viewBox="0 0 8.0967865 8.0967989"
   version="1.1"
   id="svg5"
   xml:space="preserve"
   inkscape:version="1.2.1 (9c6d41e410, 2022-07-14)"
   sodipodi:docname="0_Portifolio.svg"
   inkscape:export-filename="PortifolioDesenho.pdf"
   inkscape:export-xdpi="96"
   inkscape:export-ydpi="96"
   xmlns:inkscape="http://www.inkscape.org/namespaces/inkscape"
   xmlns:sodipodi="http://sodipodi.sourceforge.net/DTD/sodipodi-0.dtd"
   xmlns="http://www.w3.org/2000/svg"
   xmlns:svg="http://www.w3.org/2000/svg"><sodipodi:namedview
     id="namedview7"
     pagecolor="#ffffff"
     bordercolor="#000000"
     borderopacity="0.25"
     inkscape:showpageshadow="2"
     inkscape:pageopacity="0.0"
     inkscape:pagecheckerboard="0"
     inkscape:deskcolor="#d1d1d1"
     inkscape:document-units="mm"
     showgrid="false"
     inkscape:zoom="0.52284038"
     inkscape:cx="627.34251"
     inkscape:cy="505.89053"
     inkscape:window-width="1920"
     inkscape:window-height="991"
     inkscape:window-x="-9"
     inkscape:window-y="-9"
     inkscape:window-maximized="1"
     inkscape:current-layer="layer1"
     showguides="true"
     inkscape:lockguides="false" /><defs
     id="defs2"><linearGradient
       id="linearGradient9088"
       inkscape:swatch="solid"><stop
         style="stop-color:#592121;stop-opacity:1;"
         offset="0"
         id="stop9086" /></linearGradient><linearGradient
       id="linearGradient9080"
       inkscape:swatch="solid"><stop
         style="stop-color:#ababab;stop-opacity:1;"
         offset="0"
         id="stop9078" /></linearGradient></defs><g
     inkscape:label="Camada 1"
     inkscape:groupmode="layer"
     id="layer1"
     transform="translate(-183.10573,-1.7711744)"><rect
       style="fill:#fefafa;fill-opacity:1;stroke-width:0.21742"
       id="rect618-6-4"
       width="210.01071"
       height="149.81934"
       x="0.19244981"
       y="0.0024381708"
       ry="0.19405317" /><circle
       style="fill:#1e1e1e;stroke-width:0.176"
       id="path396"
       cx="187.15477"
       cy="5.8198881"
       r="4.0483994" /><g
       id="g1941"><g
         id="g2650"
         transform="translate(-12.22954)"><g
           id="g2645"
           style="fill:#92242e;fill-opacity:1"><circle
             style="fill:#92242e;fill-opacity:1;stroke-width:0.176"
             id="path396-5"
             cx="199.38367"
             cy="5.8195739"
             r="4.0483994" /></g></g><path
         style="fill:#ffffff;fill-opacity:1;stroke-width:0.0255238"
         d="m 185.67666,8.3412843 c -0.32615,-0.067043 -0.56919,-0.2812159 -0.69372,-0.611316 -0.045,-0.1194314 -0.0486,-0.2348814 -0.0563,-1.7994304 -0.008,-1.7473878 -0.001,-1.8912361 0.10092,-2.1094488 0.12232,-0.2601712 0.39177,-0.4639517 0.68777,-0.5200856 0.077,-0.014618 0.80897,-0.024922 1.76794,-0.024901 1.82992,4.43e-5 1.76718,-0.00598 1.86001,0.1786268 0.0418,0.08298 0.0443,0.2085658 0.0383,1.765668 -0.006,1.6549347 -0.007,1.6772532 -0.06,1.7483828 -0.0297,0.040062 -0.1005,0.087284 -0.15953,0.1063742 l -0.10622,0.034329 v 0.3125858 0.3125857 l 0.10072,0.030179 c 0.18144,0.05436 0.27026,0.2430631 0.19699,0.4184572 -0.076,0.1818185 0.0256,0.1720342 -1.85446,0.1787408 -1.10504,0.00387 -1.73746,-0.00321 -1.82252,-0.020739 z M 188.44334,7.423683 V 7.1046342 h -1.35134 -1.35134 l -0.0663,0.057426 c -0.17652,0.1529462 -0.14714,0.4755772 0.0506,0.5565386 0.0281,0.011489 0.65117,0.021624 1.38467,0.022511 l 1.33362,0.00166 z m -0.0626,-1.9641762 c 0.0724,-0.072432 0.079,-0.1324905 0.0229,-0.2124325 l -0.0397,-0.056729 h -1.03665 c -0.92879,0 -1.0415,0.00432 -1.08331,0.042242 -0.0617,0.055732 -0.0595,0.1747457 0.005,0.2385214 0.0492,0.049324 0.0852,0.051051 1.0604,0.051051 h 1.00936 z m 0.01,-0.642698 c 0.0632,-0.080367 0.0665,-0.1317312 0.0131,-0.2078298 l -0.0397,-0.056729 h -1.03665 c -0.92879,0 -1.0415,0.00432 -1.0833,0.042243 -0.0615,0.055732 -0.0595,0.1747455 0.005,0.2385213 0.0493,0.049336 0.0852,0.051051 1.07013,0.051051 h 1.01911 z"
         id="path10632" /></g></g></svg>
