<?xml version="1.0" encoding="UTF-8" standalone="no"?>
<!-- Created with Inkscape (http://www.inkscape.org/) -->

<svg
   width="5.1210327mm"
   height="5.1210403mm"
   viewBox="0 0 5.1210327 5.1210403"
   version="1.1"
   id="svg5"
   xml:space="preserve"
   inkscape:version="1.2.1 (9c6d41e410, 2022-07-14)"
   sodipodi:docname="0_Portifolio.svg"
   inkscape:export-filename="PortifolioDesenho.pdf"
   inkscape:export-xdpi="96"
   inkscape:export-ydpi="96"
   xmlns:inkscape="http://www.inkscape.org/namespaces/inkscape"
   xmlns:sodipodi="http://sodipodi.sourceforge.net/DTD/sodipodi-0.dtd"
   xmlns="http://www.w3.org/2000/svg"
   xmlns:svg="http://www.w3.org/2000/svg"><sodipodi:namedview
     id="namedview7"
     pagecolor="#ffffff"
     bordercolor="#000000"
     borderopacity="0.25"
     inkscape:showpageshadow="2"
     inkscape:pageopacity="0.0"
     inkscape:pagecheckerboard="0"
     inkscape:deskcolor="#d1d1d1"
     inkscape:document-units="mm"
     showgrid="false"
     inkscape:zoom="1.0456808"
     inkscape:cx="368.65936"
     inkscape:cy="768.39895"
     inkscape:window-width="1920"
     inkscape:window-height="991"
     inkscape:window-x="-9"
     inkscape:window-y="-9"
     inkscape:window-maximized="1"
     inkscape:current-layer="g10175"
     showguides="true"
     inkscape:lockguides="false" /><defs
     id="defs2"><linearGradient
       id="linearGradient9088"
       inkscape:swatch="solid"><stop
         style="stop-color:#592121;stop-opacity:1;"
         offset="0"
         id="stop9086" /></linearGradient><linearGradient
       id="linearGradient9080"
       inkscape:swatch="solid"><stop
         style="stop-color:#ababab;stop-opacity:1;"
         offset="0"
         id="stop9078" /></linearGradient></defs><g
     inkscape:label="Camada 1"
     inkscape:groupmode="layer"
     id="layer1"
     transform="translate(-263.8375,-85.925786)"><g
       id="g37540"
       transform="matrix(0.85355307,0,0,0.85355307,44.291238,12.707752)"><g
         id="g37407"><g
           id="g32583"><g
             id="g32533"><g
               id="g32337"><g
                 style="color:#ffffff"
                 id="g32176"
                 transform="matrix(0.18748979,0,0,0.18748979,257.21453,85.780298)"><path
                   d="M 0,16 V 32 H 32 V 0 H 0 Z m 25.786,-1.276 c 0.813,0.203 1.432,0.568 2.005,1.156 0.292,0.312 0.729,0.885 0.766,1.026 0.01,0.042 -1.38,0.974 -2.224,1.495 -0.031,0.021 -0.156,-0.109 -0.292,-0.313 -0.411,-0.599 -0.844,-0.859 -1.505,-0.906 -0.969,-0.063 -1.594,0.443 -1.589,1.292 -0.005,0.208 0.042,0.417 0.135,0.599 0.214,0.443 0.615,0.708 1.854,1.245 2.292,0.984 3.271,1.635 3.88,2.557 0.682,1.031 0.833,2.677 0.375,3.906 -0.51,1.328 -1.771,2.234 -3.542,2.531 -0.547,0.099 -1.849,0.083 -2.438,-0.026 -1.286,-0.229 -2.505,-0.865 -3.255,-1.698 -0.297,-0.323 -0.87,-1.172 -0.833,-1.229 0.016,-0.021 0.146,-0.104 0.292,-0.188 0.146,-0.084 0.682,-0.396 1.188,-0.688 l 0.922,-0.536 0.193,0.286 c 0.271,0.411 0.859,0.974 1.214,1.161 1.021,0.542 2.422,0.464 3.115,-0.156 0.281,-0.234 0.438,-0.594 0.417,-0.958 0,-0.37 -0.047,-0.536 -0.24,-0.813 -0.25,-0.354 -0.755,-0.656 -2.198,-1.281 -1.651,-0.714 -2.365,-1.151 -3.01,-1.854 -0.406,-0.464 -0.708,-1.01 -0.88,-1.599 -0.12,-0.453 -0.151,-1.589 -0.057,-2.042 0.339,-1.599 1.547,-2.708 3.281,-3.036 0.563,-0.109 1.875,-0.068 2.427,0.068 z m -7.51,1.339 0.01,1.307 H 14.119 V 29.209 H 11.171 V 17.37 H 7.01 v -1.281 c 0,-0.714 0.016,-1.307 0.036,-1.323 0.016,-0.021 2.547,-0.031 5.62,-0.026 l 5.594,0.016 z"
                   fill="#ffffff"
                   id="path32167" /></g></g></g></g></g></g></g></svg>
